<?xml version="1.0" standalone="no"?>
<!DOCTYPE svg PUBLIC "-//W3C//DTD SVG 20010904//EN"
 "http://www.w3.org/TR/2001/REC-SVG-20010904/DTD/svg10.dtd">
<svg version="1.0" xmlns="http://www.w3.org/2000/svg"
 width="7236.000000pt" height="7236.000000pt" viewBox="0 0 7236.000000 7236.000000"
 preserveAspectRatio="xMidYMid meet">

<g transform="translate(0.000000,7236.000000) scale(0.100000,-0.100000)"
fill="#000000" stroke="none">
<path d="M35115 71509 c-5706 -174 -11159 -1674 -16122 -4435 -2374 -1320
-4642 -2956 -6643 -4789 -793 -727 -1652 -1589 -2375 -2385 -1788 -1967 -3394
-4204 -4689 -6533 -549 -986 -1093 -2088 -1529 -3092 -1733 -3995 -2694 -8163
-2887 -12515 -41 -941 -41 -2206 0 -3150 217 -4952 1443 -9709 3645 -14145
1457 -2935 3314 -5646 5529 -8075 625 -684 1485 -1550 2158 -2173 3201 -2958
6888 -5282 10934 -6890 2913 -1158 5937 -1914 9047 -2262 1977 -221 3912 -276
5942 -170 4088 215 8150 1160 11925 2775 1075 460 2191 1004 3185 1552 3907
2156 7394 5056 10256 8533 1489 1808 2771 3727 3899 5835 178 334 637 1252
798 1596 806 1732 1448 3441 1957 5209 679 2357 1102 4743 1280 7205 49 681
71 1192 86 1986 24 1229 -25 2588 -141 3859 -307 3365 -1090 6642 -2337 9779
-1608 4046 -3932 7733 -6890 10934 -623 673 -1489 1533 -2173 2158 -3671 3349
-7994 5877 -12715 7437 -3250 1074 -6557 1651 -10060 1757 -375 11 -1704 11
-2080 -1z m829 -2495 c4 -53 5 -98 3 -101 -3 -2 -65 -19 -138 -38 -254 -63
-366 -116 -429 -202 -37 -50 -60 -137 -60 -228 0 -91 312 -2959 346 -3174 79
-511 145 -580 571 -597 l162 -7 5 -41 c3 -23 8 -66 11 -97 l6 -57 -48 -6 c-26
-3 -439 -44 -918 -91 -478 -46 -884 -87 -902 -89 -35 -5 -31 -17 -49 144 l-6
56 93 18 c126 24 264 69 320 105 55 34 93 81 115 142 24 66 29 256 10 439 -44
449 -296 3078 -296 3095 0 35 -17 1 -50 -100 -18 -55 -234 -694 -480 -1420
-416 -1227 -740 -2199 -825 -2477 -40 -131 -28 -121 -157 -133 l-67 -7 -112
224 c-277 553 -1824 3477 -1856 3508 -7 6 -2 -101 42 -955 59 -1133 112 -1986
135 -2207 19 -176 54 -273 124 -343 83 -83 191 -113 434 -122 187 -7 170 5
174 -128 l3 -80 -839 -82 c-462 -46 -841 -82 -842 -80 -6 5 -25 190 -20 194 2
2 33 11 67 19 325 74 453 181 505 419 25 115 21 480 -15 1735 -17 569 -33
1150 -36 1290 -8 317 -20 490 -40 556 -49 164 -195 230 -532 241 l-162 6 -5
46 c-3 25 -8 69 -12 98 -5 49 -4 52 18 57 32 7 1156 116 1194 116 31 0 36 -9
994 -1725 530 -949 966 -1722 970 -1718 4 4 305 855 670 1891 593 1683 665
1882 684 1882 12 1 282 27 601 59 319 33 592 59 606 60 26 1 26 0 33 -95z
m4536 -245 c333 -66 606 -122 606 -122 1 -1 190 -873 419 -1937 229 -1064 418
-1936 419 -1937 0 -1 485 653 1076 1454 591 801 1127 1527 1191 1613 l117 158
612 -123 c336 -68 613 -125 616 -127 4 -5 -31 -186 -37 -192 -2 -2 -65 0 -139
6 -402 29 -537 -38 -610 -303 -24 -91 -551 -2849 -587 -3079 -19 -120 -26
-206 -27 -315 -1 -137 1 -154 23 -202 46 -104 161 -176 401 -254 69 -23 126
-42 127 -42 2 -3 -37 -190 -41 -194 -3 -4 -1858 368 -1865 374 -3 2 4 46 13
99 l18 96 102 -8 c328 -24 437 12 514 168 47 97 74 204 172 686 50 246 196
962 324 1592 129 630 233 1146 232 1147 -2 2 -29 -34 -61 -80 -33 -45 -250
-347 -484 -672 -975 -1355 -1249 -1737 -1468 -2045 -211 -299 -495 -707 -512
-738 -6 -11 -24 -10 -100 4 -77 15 -92 21 -96 38 -2 12 -23 129 -45 261 -107
621 -708 3752 -739 3845 -8 24 -9 23 -19 -15 -30 -109 -463 -1856 -557 -2245
-198 -825 -198 -829 -199 -970 -1 -109 2 -131 21 -173 50 -109 181 -193 423
-273 63 -21 117 -40 119 -41 3 -2 -3 -46 -13 -98 -16 -85 -20 -95 -40 -95 -31
1 -1635 326 -1642 333 -4 4 2 48 13 99 l19 92 155 -3 c238 -4 340 28 441 138
118 130 132 171 547 1681 143 520 309 1125 370 1345 61 220 115 433 121 472
22 143 -22 241 -145 325 -70 47 -264 130 -382 163 -55 15 -62 20 -58 39 8 34
35 167 35 172 0 7 -1 7 620 -117z m-11820 -760 c13 -51 19 -94 14 -98 -5 -4
-63 -29 -129 -55 -210 -84 -313 -153 -357 -241 -32 -60 -35 -167 -9 -300 19
-99 785 -2979 847 -3185 35 -116 94 -239 138 -287 20 -22 60 -51 89 -64 46
-21 66 -23 172 -22 66 1 175 10 242 20 l122 19 21 -80 c12 -45 24 -89 26 -98
3 -10 4 -18 2 -18 -2 0 -419 -112 -928 -249 -509 -137 -926 -247 -928 -246 -7
6 -52 188 -48 193 3 2 49 22 103 44 174 69 264 119 325 178 90 88 106 175 68
373 -23 121 -817 3088 -861 3222 -99 296 -194 363 -478 335 -63 -7 -140 -16
-171 -21 -100 -16 -94 -20 -122 86 -13 52 -24 95 -24 95 60 20 1853 496 1857
494 4 -2 17 -45 29 -95z m-4507 -1441 l35 -87 -96 -52 c-212 -113 -314 -195
-354 -287 -30 -67 -21 -195 22 -327 42 -131 1199 -3005 1253 -3114 78 -157
161 -225 277 -224 92 0 172 25 556 174 451 175 572 237 650 335 133 168 218
493 240 921 6 110 10 133 23 137 28 8 202 28 207 24 7 -7 42 -263 69 -508 23
-202 73 -712 71 -717 -2 -4 -3085 -1243 -3093 -1243 -8 0 -73 156 -73 176 0 6
48 37 108 68 340 183 432 291 403 475 -6 41 -26 120 -45 175 -58 172 -1173
2933 -1242 3075 -140 287 -247 329 -599 236 -77 -20 -146 -38 -153 -38 -14 -2
-85 159 -79 177 4 13 1770 725 1779 717 3 -3 22 -45 41 -93z m24942 -227 c-3
-47 -30 -585 -61 -1196 -30 -610 -75 -1504 -100 -1985 -50 -965 -56 -1213 -30
-1329 40 -186 133 -292 379 -431 31 -17 57 -36 57 -42 0 -13 -71 -178 -77
-178 -3 0 -357 149 -786 331 -430 183 -796 338 -814 345 l-32 14 36 82 c19 46
39 87 44 92 4 5 54 -3 116 -19 127 -32 263 -43 317 -25 42 14 79 58 95 115 15
53 26 208 51 685 12 217 25 442 29 500 5 58 6 108 2 112 -5 6 -1036 446 -1387
593 l-32 13 -295 -316 c-438 -472 -477 -518 -525 -620 -73 -159 -2 -257 328
-457 52 -31 96 -58 98 -60 2 -2 -67 -173 -74 -183 -5 -7 -1524 642 -1524 650
0 13 71 178 77 178 2 0 49 -11 104 -25 308 -78 451 -43 702 175 42 36 750 752
1575 1591 l1501 1526 115 -25 116 -26 -5 -85z m-28355 -871 c302 -101 529
-434 530 -776 0 -150 -47 -339 -121 -485 -46 -93 -163 -259 -236 -338 l-69
-75 -85 68 c-46 38 -83 72 -82 76 1 4 26 41 55 81 143 199 218 430 189 580
-17 88 -42 139 -92 194 -101 109 -230 128 -467 69 -60 -15 -113 -23 -128 -20
-38 10 -112 84 -141 141 -37 72 -42 170 -13 249 43 112 181 217 334 252 87 20
243 12 326 -16z m32075 -1025 c424 -263 787 -489 807 -502 l38 -23 -51 -83
c-29 -45 -52 -83 -54 -84 -1 -2 -60 24 -131 56 -194 89 -246 105 -339 106 -70
0 -86 -4 -133 -30 -62 -34 -137 -112 -214 -222 -105 -149 -1711 -2749 -1755
-2838 -55 -116 -68 -182 -49 -250 33 -112 96 -165 522 -435 515 -328 593 -355
841 -295 207 50 409 145 652 307 l146 97 78 -78 c42 -43 77 -83 77 -88 0 -19
-391 -387 -744 -700 l-158 -141 -102 62 c-737 456 -2723 1690 -2729 1696 -9 8
89 170 102 170 5 0 64 -26 132 -59 248 -118 368 -147 474 -116 51 14 70 27
135 93 41 43 98 111 126 152 91 133 1675 2692 1725 2785 95 179 113 293 62
395 -32 65 -124 159 -255 264 -54 42 -98 79 -98 82 0 2 12 23 27 47 14 23 37
59 50 80 13 21 30 37 36 34 7 -2 359 -220 782 -482z m-32773 -1922 c937 -702
1744 -1303 1793 -1336 167 -110 285 -157 393 -157 69 0 204 41 329 100 58 28
107 50 108 50 5 0 105 -161 105 -168 -1 -8 -1456 -955 -1475 -960 -7 -2 -36
33 -64 78 l-52 81 120 115 c153 147 192 218 161 298 -23 61 -103 129 -580 486
-135 101 -294 223 -355 270 -60 47 -115 89 -122 93 -10 6 -1250 -789 -1291
-828 -11 -10 3 -84 83 -431 151 -652 183 -752 265 -834 86 -86 198 -73 495 61
71 33 132 56 136 51 3 -4 27 -40 53 -81 39 -61 45 -76 34 -86 -36 -35 -1372
-895 -1379 -888 -4 4 -30 43 -58 85 l-50 77 42 34 c81 67 181 173 219 232 64
98 83 177 81 330 -1 76 -9 178 -21 245 -11 63 -207 1035 -437 2160 l-417 2045
81 77 c44 43 85 78 90 78 6 0 777 -575 1713 -1277z m-3736 -922 l362 -364 -71
-76 c-40 -42 -74 -76 -77 -76 -3 0 -57 31 -120 69 -278 167 -487 250 -625 251
-141 0 -191 -34 -643 -435 l-309 -275 30 -35 c455 -520 2409 -2708 2468 -2763
217 -202 358 -185 718 86 119 89 101 90 193 -15 l49 -57 -763 -677 c-420 -372
-771 -684 -782 -693 -17 -15 -22 -12 -86 59 l-68 74 100 106 c121 128 188 214
230 299 27 53 32 75 32 131 0 58 -5 79 -36 141 -20 41 -68 113 -106 160 -93
116 -2441 2759 -2451 2759 -14 0 -575 -505 -653 -589 -197 -209 -197 -352 0
-850 l76 -193 -31 -27 c-17 -14 -54 -45 -82 -69 l-50 -43 -78 107 c-151 207
-520 700 -610 815 l-91 116 63 56 c59 53 66 56 91 46 40 -15 133 -15 177 0 22
7 64 34 95 59 89 72 2190 1937 2265 2011 89 86 119 147 125 252 l5 80 61 54
61 55 84 -93 c47 -50 247 -256 447 -456z m20750 249 c1376 -49 2671 -193 3969
-441 4074 -778 7936 -2559 11175 -5153 1118 -895 2208 -1930 3186 -3026 1142
-1279 2210 -2761 3069 -4260 2004 -3497 3147 -7357 3364 -11365 51 -923 49
-1988 -4 -2925 -242 -4253 -1541 -8366 -3793 -12010 -1410 -2281 -3216 -4369
-5307 -6136 -3664 -3096 -8164 -5110 -12911 -5778 -1242 -175 -2329 -250
-3629 -250 -1413 0 -2639 94 -4000 305 -4665 725 -9088 2765 -12689 5853 -798
684 -1612 1475 -2337 2271 -1699 1865 -3139 4021 -4214 6311 -1415 3011 -2215
6177 -2400 9494 -30 548 -38 925 -32 1664 5 711 9 846 42 1391 226 3740 1281
7394 3093 10710 1436 2630 3335 4994 5632 7011 3553 3120 7949 5208 12615
5993 1147 193 2219 298 3505 344 215 8 1425 6 1666 -3z m20904 -1049 c54 -33
94 -64 92 -72 -4 -17 -602 -1549 -1092 -2799 -536 -1368 -535 -1364 -547
-1531 -10 -151 43 -269 204 -455 l71 -81 -66 -76 -65 -77 -29 23 c-79 63
-1297 1143 -1297 1151 -1 11 108 136 124 143 7 2 50 -20 96 -50 209 -136 317
-161 391 -90 41 39 80 119 188 393 51 129 149 374 217 544 68 170 122 310 121
311 -2 1 -256 225 -565 498 -310 273 -571 502 -581 508 -14 9 -82 -24 -397
-196 -459 -250 -548 -302 -622 -362 -75 -61 -99 -90 -119 -140 -40 -101 17
-217 222 -456 l75 -88 -67 -75 -67 -74 -28 22 c-16 13 -296 259 -622 548
l-594 525 28 35 c16 19 46 54 66 77 l38 42 110 -69 c234 -148 355 -166 600
-88 116 37 592 275 2650 1327 743 379 1355 690 1360 690 6 0 53 -26 105 -58z
m3030 -3066 c199 -263 364 -484 366 -490 2 -5 -432 -784 -964 -1730 -533 -946
-963 -1721 -957 -1723 6 -1 888 184 1960 413 1605 343 1951 414 1960 402 5 -7
174 -230 375 -496 201 -265 365 -487 365 -491 0 -8 -143 -120 -153 -120 -3 0
-62 56 -132 124 -149 145 -239 209 -327 231 -57 15 -69 15 -123 1 -74 -19
-137 -51 -215 -108 -150 -111 -2333 -1801 -2435 -1886 -233 -193 -336 -315
-361 -427 -20 -92 32 -239 161 -450 23 -38 44 -73 46 -76 2 -4 -33 -34 -77
-68 -76 -58 -82 -61 -94 -44 -8 10 -266 351 -574 758 -308 407 -561 743 -561
747 0 8 143 118 154 118 3 0 55 -49 114 -108 165 -167 240 -209 353 -199 116
10 201 62 623 380 160 121 740 557 1289 970 548 412 995 752 993 754 -2 2
-131 -25 -287 -61 -156 -36 -772 -175 -1369 -310 -1347 -304 -1825 -415 -2240
-517 -179 -45 -330 -82 -337 -83 -6 0 -36 32 -67 72 l-55 74 43 66 c86 135
470 770 748 1237 430 724 605 1020 1245 2115 66 113 119 207 117 209 -8 9
-2037 -1393 -2477 -1711 -255 -185 -317 -251 -353 -373 -13 -48 -15 -70 -6
-119 14 -87 62 -204 138 -336 36 -63 66 -118 67 -121 1 -4 -33 -34 -77 -68
l-78 -61 -195 258 c-571 753 -823 1088 -825 1096 -2 4 32 35 74 68 l78 61 103
-99 c163 -156 275 -211 411 -201 139 9 264 69 626 302 160 102 2110 1372 2365
1540 182 120 248 208 247 330 -1 102 -60 253 -177 451 -52 88 -56 75 45 152
49 38 68 47 76 39 7 -7 175 -228 374 -492z m-50114 -1505 c240 -137 439 -251
441 -254 3 -3 -81 -194 -90 -203 -2 -1 -45 13 -97 33 -345 128 -603 146 -831
57 -245 -95 -477 -353 -560 -623 -34 -108 -32 -254 4 -365 90 -275 370 -518
671 -582 108 -23 281 -13 426 25 163 42 291 94 645 262 444 211 622 280 862
336 104 25 138 28 293 28 135 1 192 -3 248 -17 260 -63 533 -235 698 -441 210
-263 302 -571 274 -921 -49 -593 -420 -1143 -1068 -1583 l-133 -91 -77 33
c-263 113 -858 409 -896 446 -8 8 9 63 60 186 l13 32 108 -34 c139 -45 317
-81 466 -94 294 -27 582 49 794 209 197 149 343 362 394 578 26 109 22 281 -9
378 -74 232 -246 421 -499 549 -126 63 -230 88 -368 89 -229 0 -414 -58 -910
-286 -517 -237 -784 -323 -1070 -342 -538 -37 -1059 338 -1199 865 -139 516
48 1061 541 1580 77 82 419 400 429 400 2 0 199 -112 440 -250z m-2503 -2960
c34 -18 34 -18 -33 -180 -119 -287 -118 -393 4 -516 34 -34 107 -91 162 -126
124 -81 2736 -1579 2860 -1641 181 -91 287 -109 382 -65 62 29 168 136 272
275 46 62 86 111 89 109 3 -2 43 -25 89 -51 l82 -47 -19 -31 c-10 -18 -222
-387 -471 -822 -249 -434 -458 -795 -464 -802 -9 -10 -28 -2 -86 32 -41 25
-79 46 -85 48 -6 2 5 39 24 83 59 139 111 298 117 360 14 128 -55 229 -235
348 -87 58 -2624 1518 -2832 1630 -195 105 -326 132 -422 88 -65 -29 -171
-133 -275 -270 l-85 -112 -36 21 c-20 12 -59 35 -88 51 -50 28 -52 31 -39 51
8 12 215 373 461 802 246 429 456 795 467 813 l20 32 56 -32 c32 -18 70 -39
85 -48z m57090 -3436 c503 -96 925 -529 1126 -1158 54 -168 161 -634 161 -700
0 -8 -83 -60 -192 -122 -106 -59 -302 -169 -435 -246 -134 -76 -247 -138 -253
-138 -9 0 -135 179 -128 184 131 92 336 295 413 410 108 162 149 295 148 476
-2 291 -157 610 -366 752 -97 66 -202 99 -334 106 -124 5 -193 -4 -318 -45
-164 -53 -275 -122 -389 -243 -171 -182 -257 -454 -300 -945 -32 -354 -48
-502 -71 -645 -100 -609 -302 -920 -730 -1125 -180 -86 -349 -125 -545 -125
-147 0 -268 19 -392 60 -563 189 -986 749 -1123 1489 -28 148 -55 405 -55 516
l0 73 53 39 c138 105 558 379 786 513 63 38 75 42 85 29 6 -9 37 -50 70 -92
l59 -77 -49 -43 c-27 -24 -67 -59 -88 -78 -65 -56 -213 -228 -277 -321 -166
-243 -248 -525 -219 -759 32 -264 134 -487 294 -644 225 -219 542 -273 860
-146 255 102 426 260 522 480 74 172 117 383 159 776 14 132 32 292 41 355 96
712 301 1072 733 1289 136 69 263 105 441 125 59 7 229 -4 313 -20z m-55418
-598 c350 -264 838 -665 832 -685 -4 -16 -1288 -3052 -1294 -3060 -5 -7 -183
72 -183 81 0 6 18 70 40 144 70 239 83 345 54 445 -13 43 -28 66 -79 116 -51
50 -87 74 -196 127 -115 56 -2660 1138 -2929 1246 -272 108 -395 120 -503 47
-60 -40 -148 -155 -228 -298 -34 -60 -64 -109 -66 -109 -4 0 -175 71 -181 75
-3 3 738 1757 747 1767 3 4 38 -7 76 -24 39 -16 80 -34 92 -38 l21 -9 -24 -78
c-77 -246 -94 -390 -54 -479 39 -90 140 -169 320 -252 185 -86 2911 -1237
3003 -1269 194 -66 275 -57 372 42 71 72 94 116 275 529 172 395 202 482 208
611 4 89 1 109 -22 179 -76 226 -241 477 -468 711 l-87 91 71 92 71 92 26 -17
c14 -9 62 -44 106 -77z m57345 -2868 c7 -24 158 -585 336 -1248 339 -1257 411
-1519 470 -1709 19 -62 34 -114 32 -116 -5 -5 -1028 -345 -1036 -345 -8 0 -96
190 -90 194 2 1 55 36 118 78 181 118 382 289 442 375 73 107 87 257 44 463
-37 175 -244 929 -269 980 -27 56 -57 73 -118 65 -37 -4 -1638 -431 -1646
-438 -3 -4 202 -764 237 -878 64 -209 149 -326 263 -366 54 -18 213 -24 377
-13 l74 5 29 -104 c16 -56 26 -105 23 -108 -8 -9 -1417 -386 -1422 -381 -7 7
-54 180 -54 198 0 10 35 33 92 60 178 87 287 171 331 255 29 56 35 186 13 296
-20 101 -245 941 -254 951 -8 7 -1408 -368 -1507 -404 -201 -72 -289 -157
-310 -298 -11 -74 18 -212 134 -640 157 -581 186 -656 296 -759 130 -121 411
-227 815 -305 l115 -23 7 -49 c3 -27 7 -77 7 -110 l1 -62 -163 -7 c-181 -8
-1012 -3 -1021 6 -5 4 -853 3137 -897 3314 -6 25 -9 48 -6 51 11 11 182 53
187 46 4 -4 24 -54 44 -112 93 -258 182 -393 288 -441 68 -30 182 -30 318 -1
134 29 3012 805 3145 848 363 118 426 223 366 604 -10 63 -16 118 -12 122 7 8
147 46 173 47 12 1 21 -12 28 -41z m-61835 -809 c149 -28 272 -52 274 -54 2
-2 0 -51 -4 -108 l-7 -105 -111 -6 c-225 -14 -501 -67 -603 -116 -115 -56
-196 -169 -262 -367 -32 -95 -233 -871 -250 -964 -14 -75 1 -116 53 -143 47
-24 1657 -438 1666 -428 3 4 59 216 124 472 l119 465 0 135 c1 123 -1 139 -23
182 -13 26 -40 63 -60 82 -46 45 -172 121 -284 170 -48 22 -87 45 -87 53 0 21
40 177 50 192 6 10 163 -26 715 -167 389 -100 710 -183 712 -186 5 -5 -7 -63
-37 -177 l-10 -36 -160 5 c-104 3 -182 0 -222 -8 -154 -30 -232 -109 -297
-305 -30 -91 -255 -955 -249 -959 9 -7 1446 -369 1511 -381 165 -31 289 -14
365 51 90 76 117 152 256 694 142 558 154 636 120 765 -43 167 -242 411 -549
675 -60 52 -110 99 -110 105 0 18 96 185 107 185 19 0 834 -456 971 -544 l55
-34 -29 -109 c-15 -59 -208 -814 -429 -1678 -220 -863 -402 -1575 -405 -1582
-3 -8 -30 -5 -95 12 -50 13 -94 26 -97 29 -3 2 2 47 11 98 44 258 44 412 0
504 -44 93 -161 164 -364 222 -145 42 -2981 767 -3105 793 -66 15 -137 22
-210 23 -102 1 -114 -1 -168 -28 -94 -46 -156 -140 -237 -361 -19 -49 -35 -92
-37 -95 -7 -8 -193 43 -193 53 0 5 135 539 301 1186 308 1202 434 1710 465
1862 l18 85 265 -53 c146 -29 388 -76 536 -104z m63097 -4458 l48 -533 -883
-892 c-1900 -1916 -2427 -2451 -2418 -2454 10 -3 1656 144 2056 184 558 55
902 108 1009 154 68 29 139 100 170 170 44 98 57 179 63 391 l6 197 94 7 c52
4 97 4 100 1 8 -7 165 -1747 159 -1754 -7 -6 -187 -24 -192 -19 -3 2 -18 59
-34 125 -75 307 -153 411 -334 448 -136 28 -471 4 -2696 -196 -795 -71 -1459
-132 -1477 -134 l-31 -4 -8 76 c-4 42 -8 106 -8 142 l-1 65 1722 1690 c947
929 1721 1690 1719 1692 -4 5 -1966 -174 -2231 -203 -269 -29 -690 -88 -790
-111 -191 -42 -292 -142 -339 -333 -16 -68 -36 -256 -36 -351 l0 -57 -96 -7
c-52 -4 -97 -5 -99 -3 -6 6 -160 1727 -155 1731 3 3 48 8 101 12 l96 7 17 -88
c71 -355 196 -487 481 -510 89 -6 450 8 765 32 428 31 2418 215 2480 228 36 8
83 22 105 31 96 41 244 172 297 265 54 93 88 264 88 442 l0 87 58 4 c31 2 77
3 102 3 l44 -1 48 -534z m-64747 171 l60 -7 6 -170 c7 -184 16 -241 54 -314
52 -104 161 -157 405 -195 52 -9 739 -97 1525 -196 787 -99 1484 -190 1550
-201 617 -104 977 -257 1268 -538 170 -164 341 -416 446 -658 41 -94 124 -334
118 -340 -7 -6 -208 -83 -218 -83 -6 0 -15 14 -21 32 -6 17 -35 79 -63 137
-94 190 -204 324 -367 446 -260 196 -591 294 -1351 400 -316 44 -2821 360
-2977 376 -206 20 -338 -4 -413 -78 -71 -68 -103 -140 -162 -367 -19 -70 -35
-129 -37 -131 -5 -4 -187 21 -192 26 -4 4 214 1761 229 1847 6 31 8 32 43 27
20 -3 64 -9 97 -13z m4125 -3200 c0 -148 3 -546 7 -885 l6 -617 -101 0 -101 0
-5 33 c-38 236 -64 321 -116 379 -35 40 -40 42 -101 45 -74 5 -115 -9 -724
-235 -192 -71 -394 -145 -447 -163 l-98 -34 0 -491 c0 -270 3 -619 7 -775 l6
-285 146 -51 c80 -28 288 -101 461 -163 365 -129 478 -161 575 -163 91 -1 144
25 186 91 48 76 67 153 115 468 l4 31 98 6 c53 3 97 5 98 4 2 -1 6 -374 10
-830 l7 -827 -101 0 -101 0 -5 33 c-46 286 -82 373 -197 482 -97 91 -203 150
-444 247 -55 22 -950 368 -1990 770 -1039 401 -1893 733 -1897 736 -12 12 -50
224 -41 232 4 4 258 100 563 215 547 204 2363 882 3043 1136 192 71 401 152
465 180 319 137 414 258 452 576 7 54 14 104 16 111 2 8 32 12 104 12 l100 0
0 -268z m56478 -2597 c1 -1 7 -64 13 -141 25 -339 75 -435 253 -489 45 -13
116 -29 158 -35 127 -16 3155 -190 3315 -190 165 0 237 13 307 54 97 57 139
151 191 431 l22 120 99 -4 c54 -2 100 -4 101 -5 1 -1 -23 -418 -52 -926 -30
-509 -55 -940 -55 -957 l0 -33 -77 1 c-133 2 -127 -5 -135 134 -26 440 -99
518 -518 554 -104 10 -2853 170 -3135 184 -127 6 -271 -8 -338 -33 -85 -32
-139 -97 -176 -214 -16 -50 -39 -143 -51 -206 -11 -63 -23 -126 -26 -138 -5
-23 -7 -24 -99 -20 -51 1 -96 6 -99 9 -4 3 18 432 49 952 30 520 55 950 55
955 0 7 35 8 98 5 53 -3 98 -7 100 -8z m-56271 -3090 c106 -500 194 -919 195
-929 3 -17 -9 -22 -77 -37 -124 -28 -115 -34 -154 88 -69 214 -138 322 -231
362 -113 49 -221 39 -705 -64 -165 -35 -865 -181 -1555 -325 -690 -143 -1264
-264 -1274 -269 -13 -5 37 -19 155 -45 96 -21 674 -148 1284 -282 1497 -330
2013 -442 2442 -527 l363 -72 16 -75 c8 -41 18 -82 20 -91 3 -11 -61 -58 -223
-164 -464 -303 -1599 -1071 -2663 -1803 -655 -451 -602 -413 -597 -418 12 -12
2717 443 3077 517 271 57 371 121 424 274 24 68 31 234 17 379 -6 65 -10 121
-7 123 6 7 187 45 191 41 2 -2 81 -368 175 -813 94 -446 173 -819 176 -831 5
-18 -3 -22 -91 -38 -54 -10 -100 -15 -104 -10 -4 5 -20 45 -35 89 -63 181
-154 314 -254 368 -153 83 -287 78 -1157 -43 -154 -21 -653 -91 -1110 -155
-456 -63 -954 -133 -1105 -154 -355 -50 -430 -75 -503 -169 -50 -65 -62 -127
-62 -327 0 -99 3 -207 7 -240 l7 -61 -99 -20 -99 -20 -6 26 c-3 14 -61 288
-130 610 -114 541 -122 586 -107 598 9 7 734 524 1610 1149 876 625 1589 1140
1585 1144 -4 4 -881 210 -1948 458 -1066 249 -1940 453 -1942 454 -3 3 -250
1173 -255 1206 -3 24 1 26 91 44 51 10 97 15 101 10 4 -4 26 -62 50 -128 67
-188 116 -281 185 -352 77 -79 135 -99 265 -90 59 4 519 102 1505 322 781 174
1492 334 1580 357 468 119 576 194 600 420 5 50 -8 328 -19 388 -1 8 146 39
174 37 24 -2 26 -10 217 -912z m56063 384 c52 -11 95 -21 97 -22 1 -1 -2 -34
-7 -72 -14 -103 -12 -241 4 -316 40 -185 132 -272 371 -348 276 -89 584 -159
1995 -458 954 -202 1075 -225 1165 -227 115 -1 161 11 297 81 153 79 238 192
324 438 23 66 46 119 51 119 76 -11 193 -40 190 -48 -2 -6 -53 -244 -113 -528
l-109 -517 -2072 -1113 c-1140 -611 -2070 -1115 -2066 -1119 8 -6 1832 -393
2128 -450 465 -91 755 -133 871 -127 219 11 342 176 469 626 3 12 14 22 23 22
16 0 174 -31 180 -36 4 -2 -358 -1727 -364 -1733 -2 -3 -130 22 -174 35 -13 3
-15 36 -15 216 0 201 -1 216 -24 272 -40 101 -112 163 -237 207 -72 25 -538
138 -879 213 -137 30 -905 193 -1705 361 -800 169 -1456 308 -1457 309 -3 3
54 266 58 270 2 1 968 502 2146 1112 1178 610 2139 1112 2135 1115 -9 9 -2053
437 -2302 483 -312 57 -577 97 -686 103 -87 5 -112 3 -175 -17 -67 -20 -80
-29 -144 -94 -81 -83 -130 -173 -194 -360 -23 -66 -43 -121 -45 -123 -3 -3
-188 36 -193 41 -2 2 330 1587 352 1684 3 12 7 22 8 22 2 0 45 -9 97 -21z
m-55312 -9809 c192 -228 457 -541 587 -695 131 -154 248 -292 260 -307 l23
-27 333 136 c184 74 592 240 908 369 316 129 575 233 576 231 1 -1 -231 -375
-516 -831 -501 -804 -517 -831 -501 -851 9 -11 110 -131 224 -265 794 -940
1016 -1205 1014 -1207 -2 -2 -318 73 -702 167 -384 94 -811 198 -947 231 -137
34 -250 59 -252 58 -1 -2 -233 -373 -514 -824 -282 -451 -515 -821 -519 -823
-4 -1 -38 433 -76 965 -38 533 -70 970 -72 971 -2 4 -1627 403 -1816 448 -43
10 -78 20 -78 23 0 3 152 68 338 143 746 304 1465 598 1468 601 3 3 -118 1742
-131 1887 l-7 65 25 -25 c13 -14 182 -212 375 -440z m54500 -477 c-37 -516
-67 -955 -68 -976 0 -32 4 -39 28 -48 153 -58 1772 -724 1772 -729 0 -3 -421
-109 -936 -235 -514 -126 -940 -232 -945 -236 -5 -3 -40 -441 -79 -973 -38
-533 -70 -970 -72 -971 -2 -2 -234 368 -517 822 -283 453 -518 826 -522 829
-4 2 -432 -99 -950 -226 -518 -126 -944 -228 -946 -226 -2 2 195 239 439 528
768 908 803 950 802 967 0 9 -221 369 -490 801 -269 432 -500 802 -513 823
l-23 37 49 -19 c26 -10 314 -127 638 -259 325 -132 712 -290 862 -350 l272
-111 273 323 c150 177 433 512 628 743 195 232 357 422 360 422 3 1 -25 -421
-62 -936z m-6654 -6118 l39 -46 -19 -24 c-10 -12 -45 -54 -78 -92 -185 -216
-226 -357 -149 -514 19 -38 98 -145 196 -265 290 -355 356 -431 1687 -1953
448 -513 815 -936 815 -940 0 -5 -44 -48 -98 -95 -75 -66 -103 -85 -120 -81
-62 14 -4680 786 -4683 783 -5 -6 1263 -1455 1486 -1698 103 -113 270 -289
371 -392 159 -160 193 -190 254 -219 57 -28 84 -35 147 -38 126 -5 239 39 438
174 l109 74 67 -75 c37 -41 65 -76 63 -78 -2 -1 -293 -256 -647 -565 -354
-309 -647 -561 -651 -559 -5 2 -35 34 -69 72 l-60 70 67 75 c92 106 136 168
173 247 30 63 33 78 33 164 0 88 -2 100 -36 170 -52 109 -238 352 -550 720
-376 443 -1573 1801 -1620 1837 -101 78 -243 123 -386 123 -137 0 -252 -47
-452 -184 l-73 -50 -40 44 c-58 67 -91 110 -87 114 2 1 182 158 399 348 l396
346 2274 -349 c1251 -192 2285 -348 2298 -346 19 2 -79 119 -629 747 -713 814
-755 861 -998 1124 -195 210 -354 357 -425 393 -99 51 -234 40 -370 -29 -54
-27 -194 -118 -280 -181 l-69 -51 -63 70 c-35 38 -63 74 -63 79 0 6 296 268
657 583 l657 572 25 -29 c14 -16 43 -50 64 -76z m-40447 -416 c51 -34 93 -63
93 -65 0 -5 -663 -1475 -1110 -2464 -576 -1272 -606 -1339 -648 -1446 -45
-112 -77 -225 -87 -300 -15 -116 41 -260 162 -418 37 -48 72 -94 78 -102 7
-11 -7 -31 -60 -84 l-71 -70 -344 337 c-190 186 -472 462 -627 614 l-281 276
71 71 72 71 80 -60 c94 -69 215 -134 267 -144 51 -10 100 9 141 54 39 44 81
128 282 572 79 173 173 378 210 454 36 77 64 144 63 151 -4 14 -1074 1064
-1086 1064 -25 0 -903 -431 -992 -487 -109 -69 -169 -147 -170 -219 0 -80 63
-198 208 -387 l75 -99 -71 -71 -71 -71 -413 406 c-227 223 -491 481 -586 573
l-173 168 68 69 c37 37 71 68 75 68 4 0 49 -30 100 -66 266 -188 417 -198 788
-49 74 30 970 428 1990 884 1020 457 1859 831 1865 831 5 0 51 -28 102 -61z
m2603 -2364 c410 -295 751 -543 758 -550 12 -10 4 -25 -42 -89 -31 -42 -59
-76 -62 -76 -2 0 -62 31 -132 70 -174 95 -250 123 -337 124 -55 0 -80 -4 -115
-23 -69 -36 -132 -93 -213 -194 -104 -129 -1861 -2564 -1919 -2661 -60 -99
-91 -195 -82 -251 10 -62 52 -131 119 -194 73 -68 602 -462 722 -537 161 -101
276 -128 433 -101 228 39 484 140 739 291 51 31 94 56 96 56 2 0 36 -39 76
-87 l73 -86 -43 -38 c-136 -121 -855 -694 -901 -718 -11 -6 -385 259 -1335
946 -726 524 -1327 957 -1335 962 -12 8 -6 22 35 80 27 40 54 76 60 81 8 7 55
-14 145 -65 208 -116 342 -163 425 -149 94 15 176 77 288 217 81 102 1815
2502 1884 2609 59 92 110 200 123 264 9 44 9 64 -4 107 -24 84 -69 144 -208
279 l-130 127 57 81 c39 56 61 78 68 72 7 -5 347 -251 757 -547z m33464 -767
c21 -35 45 -72 53 -84 13 -20 6 -27 -107 -124 -306 -260 -325 -362 -132 -685
66 -110 1664 -2569 1732 -2665 135 -191 222 -256 340 -254 80 1 153 26 329
110 74 35 138 63 142 62 9 -4 111 -159 107 -163 -19 -16 -1581 -1025 -1587
-1025 -9 0 -116 159 -110 163 36 26 210 181 257 230 162 170 151 299 -56 622
-226 352 -1650 2539 -1696 2604 -200 283 -306 304 -670 132 -71 -34 -130 -60
-131 -59 -39 52 -105 161 -101 165 8 9 1580 1031 1586 1032 3 1 23 -27 44 -61z
m-2674 -1863 c388 -59 663 -308 786 -711 25 -81 28 -103 28 -259 1 -176 -7
-222 -54 -352 -65 -176 -210 -389 -357 -524 -32 -28 -49 -49 -38 -46 222 70
541 108 740 87 383 -39 654 -217 820 -541 94 -183 135 -348 135 -544 0 -283
-100 -555 -305 -827 -219 -291 -481 -495 -908 -709 -290 -146 -1590 -780
-1592 -777 -5 6 -85 168 -85 172 0 2 60 43 133 91 312 206 352 308 234 595
-46 114 -1401 2882 -1455 2974 -56 95 -140 189 -196 219 -34 18 -57 22 -136
22 -88 -1 -106 -5 -245 -52 -82 -28 -158 -55 -167 -58 -14 -5 -26 11 -62 82
l-44 90 896 438 c493 241 963 465 1044 497 319 126 588 170 828 133z m-25491
-640 c305 -113 555 -206 556 -207 1 -2 50 -878 110 -1948 59 -1070 110 -1947
112 -1950 2 -2 83 75 181 171 97 97 670 661 1272 1254 602 593 1156 1139 1231
1213 l136 134 574 -212 c316 -117 577 -216 581 -219 9 -8 -58 -187 -69 -184
-4 0 -78 16 -163 34 -196 42 -348 46 -420 13 -89 -42 -162 -142 -223 -309
-117 -316 -965 -2692 -1002 -2805 -128 -398 -131 -535 -13 -652 55 -55 123
-100 271 -178 64 -34 117 -65 117 -68 0 -4 -14 -46 -32 -95 -25 -67 -36 -86
-48 -81 -8 3 -404 150 -880 326 -476 177 -867 322 -869 324 -5 5 61 184 68
184 4 0 68 -14 142 -32 175 -41 292 -44 361 -10 97 48 169 165 277 447 181
478 1071 2870 1069 2875 -6 10 -2396 -2412 -2785 -2822 l-225 -237 -81 29
c-44 16 -82 31 -84 34 -2 2 -8 199 -13 437 -11 476 -32 1205 -55 1849 -42
1170 -66 1790 -73 1832 l-7 48 -179 -423 c-317 -745 -614 -1451 -781 -1857
-292 -710 -319 -793 -295 -913 15 -76 30 -107 83 -164 58 -63 142 -121 282
-194 66 -34 121 -63 123 -64 4 -3 -58 -169 -67 -178 -8 -8 -1546 556 -1565
573 -5 5 6 47 25 99 25 69 37 90 49 86 80 -25 220 -48 305 -49 149 -1 234 33
331 136 109 115 138 172 646 1298 143 316 387 856 543 1200 156 344 293 654
305 690 30 89 31 180 1 242 -46 95 -192 208 -413 319 -64 32 -78 43 -73 57 4
9 15 40 25 67 39 108 37 106 62 95 13 -5 272 -102 577 -215z m-3383 -1306
c335 -188 653 -366 706 -395 l97 -55 -126 -174 c-69 -96 -129 -175 -133 -175
-8 0 -1400 778 -1412 789 -4 3 34 62 83 131 50 69 106 146 125 173 19 26 38
47 42 47 5 0 283 -153 618 -341z m24825 236 c168 -29 331 -101 457 -201 226
-178 355 -461 355 -779 0 -270 -80 -467 -288 -709 -56 -65 -195 -185 -267
-231 -27 -17 -48 -33 -48 -36 0 -3 30 -1 68 4 101 14 435 13 531 -2 272 -41
491 -141 646 -296 240 -240 354 -651 279 -1009 -55 -267 -190 -495 -430 -726
-246 -237 -503 -388 -889 -521 -145 -50 -1769 -559 -1783 -559 -10 0 -62 146
-62 173 0 7 76 49 168 93 250 121 311 185 320 334 3 58 -2 99 -21 180 -34 139
-947 3045 -999 3177 -114 295 -226 344 -607 267 -68 -13 -125 -23 -127 -21 -3
2 -17 45 -33 95 l-28 91 31 10 c469 150 1852 580 1935 602 106 27 291 63 371
72 96 10 344 6 421 -8z m-15236 -911 c495 -75 902 -138 904 -140 3 -2 -13
-117 -24 -169 -4 -19 -12 -20 -212 -20 -196 0 -211 -1 -258 -23 -130 -60 -184
-171 -239 -492 -20 -114 -208 -1337 -291 -1888 -90 -605 23 -1094 324 -1401
246 -251 614 -385 1056 -384 126 0 182 5 265 22 472 100 758 447 930 1129 45
182 63 283 144 808 179 1170 215 1534 165 1682 -50 147 -193 241 -483 315 -66
17 -122 31 -123 32 -3 1 27 189 31 192 5 5 1661 -250 1669 -257 5 -4 3 -48 -5
-96 l-13 -89 -155 -1 c-163 -1 -243 -15 -327 -55 -91 -44 -163 -147 -198 -284
-33 -132 -130 -702 -230 -1353 -136 -884 -179 -1092 -277 -1362 -149 -409
-405 -724 -730 -899 -312 -169 -739 -214 -1231 -130 -439 74 -792 234 -1023
464 -246 243 -380 522 -429 890 -19 142 -19 460 0 635 7 74 75 536 150 1025
180 1179 185 1211 185 1341 0 142 -17 201 -76 264 -57 61 -140 100 -315 150
-79 22 -144 42 -146 44 -4 3 11 110 23 167 3 19 10 26 22 23 9 -2 422 -65 917
-140z m11750 17 c9 -46 15 -89 13 -97 -2 -9 -66 -36 -166 -69 -193 -64 -247
-92 -306 -155 -73 -78 -91 -186 -65 -377 16 -118 555 -3086 578 -3183 58 -245
118 -329 261 -366 54 -14 98 -16 261 -11 l197 5 17 -95 c9 -52 15 -95 14 -97
-5 -3 -1841 -336 -1856 -336 -10 0 -51 187 -42 193 2 2 40 14 84 27 133 40
282 100 332 134 108 73 144 182 124 369 -10 92 -510 2871 -567 3149 -87 428
-164 490 -585 467 -79 -4 -144 -7 -145 -6 -3 7 -33 191 -31 193 3 4 1861 341
1864 339 2 -1 10 -39 18 -84z m-2595 -550 l0 -98 -91 -13 c-246 -33 -361 -71
-430 -140 -65 -65 -88 -142 -96 -310 -5 -128 88 -2941 106 -3218 13 -182 31
-269 72 -340 34 -60 94 -104 173 -127 53 -16 218 -40 338 -50 l77 -7 3 -96 c2
-53 3 -98 3 -99 -1 -5 -1885 -67 -1889 -62 -2 2 -8 47 -11 99 l-7 96 92 13
c135 19 294 57 354 84 114 52 161 137 176 316 6 76 1 327 -19 898 -15 436 -30
795 -33 798 -8 8 -2401 -75 -2409 -83 -11 -11 47 -1590 61 -1682 37 -233 103
-304 326 -349 28 -6 110 -16 182 -23 l130 -12 7 -94 c4 -51 4 -96 1 -100 -4
-3 -359 -19 -789 -33 -430 -15 -852 -30 -938 -33 l-157 -7 -7 96 c-4 53 -5 98
-3 100 1 2 71 15 153 29 216 38 296 66 361 130 67 65 92 139 100 300 6 125
-102 3240 -117 3351 -13 99 -43 194 -78 242 -61 84 -180 126 -417 145 l-142
12 -6 35 c-3 20 -6 64 -6 98 l0 61 73 6 c39 3 425 17 857 31 432 14 824 27
871 31 l86 5 6 -98 c3 -54 4 -99 2 -101 -1 -2 -51 -10 -109 -18 -143 -20 -289
-58 -341 -89 -59 -34 -109 -95 -129 -158 -39 -117 -41 -205 -17 -902 13 -363
25 -662 27 -665 6 -6 2405 77 2411 84 6 6 -23 919 -38 1191 -10 191 -28 301
-61 377 -27 63 -100 130 -171 156 -53 20 -203 44 -358 58 -65 5 -67 6 -73 36
-3 17 -6 61 -6 99 l0 69 83 1 c45 0 424 13 842 28 418 16 808 29 868 30 l107
1 0 -99z"/>
<path d="M48028 65207 c-235 -249 -535 -564 -667 -702 -131 -137 -236 -253
-232 -257 10 -10 1214 -519 1218 -514 2 2 28 415 58 917 30 503 56 935 57 962
2 26 1 47 -2 47 -3 -1 -197 -204 -432 -453z"/>
<path d="M18610 62838 c0 -6 90 -417 199 -913 110 -495 203 -917 207 -937 3
-21 8 -38 11 -38 10 0 1107 719 1110 726 1 5 -264 212 -588 459 -325 248 -669
510 -765 583 -96 73 -174 127 -174 120z"/>
<path d="M35375 61019 c-3134 -100 -6166 -775 -9025 -2007 -2442 -1052 -4678
-2476 -6668 -4245 -681 -606 -1443 -1366 -2048 -2042 -2603 -2915 -4475 -6385
-5479 -10160 -975 -3663 -1089 -7622 -329 -11357 746 -3667 2335 -7155 4612
-10122 2728 -3555 6337 -6300 10467 -7963 2685 -1081 5457 -1665 8410 -1773
352 -13 1375 -13 1731 0 3343 122 6503 869 9510 2250 3748 1722 7033 4380
9528 7710 2710 3616 4382 7922 4821 12410 83 852 115 1542 115 2464 0 602 -8
912 -35 1411 -214 3901 -1348 7683 -3323 11080 -1534 2639 -3590 5018 -5999
6942 -2777 2218 -6003 3815 -9453 4678 -1548 387 -3148 623 -4770 705 -588 29
-1486 38 -2065 19z m19903 -12624 c93 -176 236 -441 317 -590 1355 -2474 2197
-5170 2550 -8158 86 -730 95 -1104 39 -1597 -143 -1257 -718 -2467 -1718
-3614 -171 -197 -478 -518 -572 -600 -229 -199 -658 -528 -969 -743 -1145
-793 -2523 -1444 -4046 -1912 -252 -77 -378 -103 -519 -105 l-95 -1 -22 65
c-27 78 -29 140 -6 206 34 102 79 135 1263 949 1441 990 1880 1317 2705 2015
1063 898 1506 1351 1908 1950 203 301 416 711 564 1085 170 429 237 681 285
1065 17 136 17 698 0 880 -56 606 -121 1017 -228 1445 -166 666 -369 1230
-902 2510 -110 264 -235 566 -277 670 -42 105 -80 194 -84 198 -16 16 -115
-495 -140 -723 -6 -52 -16 -232 -21 -400 -11 -324 -28 -523 -61 -735 -23 -145
-77 -416 -83 -423 -9 -8 -121 85 -186 154 -81 86 -135 166 -177 265 -63 145
-84 270 -103 614 -15 257 -27 391 -53 580 -41 297 -25 938 49 1920 51 694 237
2656 265 2795 11 58 43 191 70 295 28 105 55 207 60 229 6 21 12 36 14 35 2
-2 79 -148 173 -324z m-4462 -197 c26 -35 138 -177 248 -317 353 -450 439
-575 668 -976 642 -1121 1065 -2082 1332 -3026 193 -682 298 -1310 347 -2079
15 -237 15 -926 0 -1185 -51 -880 -197 -1902 -352 -2470 -244 -896 -674 -1725
-1333 -2570 -328 -420 -681 -810 -1212 -1335 -451 -446 -573 -557 -914 -829
-162 -129 -389 -314 -504 -409 -314 -262 -372 -301 -444 -302 -56 0 -102 34
-252 185 -80 81 -194 190 -255 244 -110 98 -305 255 -310 249 -1 -2 -76 -100
-165 -218 -426 -562 -577 -723 -779 -823 -77 -38 -90 -42 -181 -45 -145 -6
-242 27 -395 136 -159 112 -321 276 -690 697 -244 278 -786 875 -795 875 -4 0
-82 -56 -174 -125 -1327 -992 -2685 -1325 -4005 -983 -345 89 -748 255 -1096
452 -565 320 -1048 767 -1378 1278 -554 856 -802 1939 -785 3433 2 190 2 345
0 345 -3 0 -263 -213 -1262 -1034 -727 -598 -1605 -1339 -1784 -1507 -73 -68
-108 -126 -137 -226 -60 -212 -54 -480 51 -2213 59 -978 59 -979 50 -1060 -15
-130 -41 -264 -53 -272 -17 -11 -167 -10 -167 1 0 23 -380 3151 -387 3184 l-8
38 -202 -138 c-111 -76 -262 -186 -336 -245 -396 -315 -738 -510 -1097 -626
-265 -86 -493 -118 -769 -109 -333 11 -603 82 -921 243 -313 158 -569 352
-877 662 -160 160 -185 176 -207 126 -8 -18 -56 -33 -330 -103 -177 -44 -460
-116 -631 -160 -500 -128 -852 -194 -1185 -222 -439 -37 -819 95 -1233 426
-115 93 -330 301 -498 483 l-104 112 -1072 -428 c-589 -235 -1074 -430 -1077
-433 -6 -5 -84 -606 -141 -1079 -43 -357 -72 -545 -126 -817 -272 -1376 -877
-2615 -1809 -3700 -274 -318 -616 -661 -835 -836 -851 -679 -1954 -850 -2955
-456 -469 184 -911 509 -1224 899 -222 278 -415 645 -520 992 -115 379 -223
1089 -257 1680 -15 274 -6 1027 15 1278 64 737 194 1451 391 2150 56 198 137
521 132 526 -2 2 -68 7 -148 10 -238 11 -465 -21 -694 -97 -466 -154 -858
-482 -1381 -1157 -81 -106 -151 -189 -155 -184 -9 9 -63 232 -83 342 -51 283
-71 572 -62 880 10 383 5 357 146 641 292 582 540 955 849 1272 69 71 169 165
221 209 670 563 1529 796 2012 546 123 -63 229 -172 290 -298 56 -114 74 -179
90 -327 23 -220 -3 -380 -158 -988 -263 -1029 -319 -1264 -403 -1665 -161
-780 -210 -1094 -231 -1491 -18 -363 24 -679 134 -995 254 -730 838 -1355
1566 -1677 574 -253 1169 -292 1713 -113 665 219 1286 685 1808 1356 432 556
761 1288 868 1935 37 226 45 320 45 555 0 536 -112 1114 -305 1573 -112 266
-228 468 -419 727 -77 104 -140 217 -155 275 -90 367 147 1296 490 1917 68
122 169 276 222 336 l38 43 116 -178 c64 -98 203 -310 308 -472 216 -330 357
-560 486 -796 48 -88 102 -181 121 -206 50 -68 118 -127 182 -157 52 -25 68
-27 172 -26 132 1 162 9 470 141 803 343 1290 704 1718 1274 153 204 270 351
607 756 l150 181 7 -52 c29 -230 40 -841 19 -1076 -59 -646 -237 -1153 -580
-1654 -34 -49 -60 -90 -59 -92 2 -1 86 -16 188 -33 102 -17 262 -44 355 -60
330 -58 456 -59 754 -11 548 90 1044 269 1461 529 382 237 654 489 999 922
112 140 350 433 529 651 l327 398 7 -53 c14 -112 30 -651 23 -817 -16 -434
-65 -752 -160 -1051 -99 -307 -240 -584 -433 -848 -46 -62 -82 -115 -80 -116
2 -1 77 -14 168 -29 91 -14 255 -41 365 -60 426 -74 608 -75 965 -5 780 152
1458 529 2061 1146 145 147 180 197 214 304 27 88 129 694 245 1459 176 1160
296 1796 431 2271 152 538 416 978 762 1265 509 426 1158 571 1993 449 592
-87 1162 -231 2296 -581 570 -176 725 -221 936 -274 635 -159 1138 -197 1657
-124 127 18 401 75 493 103 34 11 62 16 62 13 0 -12 -168 -711 -256 -1062 -84
-340 -142 -552 -215 -783 -48 -151 -71 -181 -189 -238 -129 -63 -251 -92 -530
-124 -897 -105 -1834 -417 -2640 -880 -189 -108 -264 -160 -340 -235 -115
-113 -178 -222 -222 -382 -21 -75 -23 -104 -22 -298 0 -275 31 -498 105 -780
97 -367 288 -745 526 -1040 155 -194 395 -411 633 -573 990 -674 2323 -897
3544 -591 694 174 1292 492 1761 935 48 46 215 224 370 394 495 543 599 629
758 628 124 0 196 -48 587 -383 113 -97 320 -268 460 -380 140 -112 354 -286
475 -385 724 -596 1087 -853 1503 -1064 l140 -71 83 29 c105 36 252 96 287
119 121 77 868 651 1118 860 565 470 1206 1095 1555 1512 476 571 716 1071
806 1675 25 172 25 681 0 880 -101 789 -381 1763 -782 2724 -283 679 -695
1482 -1133 2209 l-80 134 -6 -84 c-3 -45 -13 -202 -21 -348 -20 -343 -38 -545
-80 -925 -59 -533 -74 -706 -100 -1174 -8 -151 -17 -276 -19 -278 -4 -4 -154
-33 -172 -33 -8 0 -14 5 -14 10 0 6 -25 73 -55 148 -77 194 -82 225 -90 537
-3 148 -10 317 -16 375 -17 192 23 1214 81 2090 40 595 143 1887 160 2012 6
40 20 120 31 178 20 99 138 612 142 617 7 6 135 52 148 52 9 1 38 -27 65 -61z
m-20591 -4329 c94 -163 96 -170 230 -744 89 -382 137 -519 226 -637 54 -72
141 -144 229 -188 54 -27 231 -93 235 -88 8 9 -53 366 -109 643 -88 437 -100
518 -93 640 7 115 33 211 83 304 37 68 82 131 93 131 19 0 90 -152 137 -297
245 -741 241 -1315 -12 -1735 -75 -125 -239 -328 -265 -328 -7 0 -410 304
-667 503 -9 7 -33 -12 -90 -73 -78 -85 -300 -281 -408 -361 -95 -71 -199 -125
-264 -139 -167 -35 -337 38 -413 179 -34 61 -88 273 -122 473 -90 536 -36 998
166 1417 56 118 119 201 151 201 13 0 6 -396 -13 -788 -9 -194 -9 -291 -1
-421 12 -168 46 -400 63 -433 9 -16 27 -18 163 -18 84 0 221 -3 304 -7 l151
-6 15 54 c69 241 93 475 106 1058 11 474 28 761 45 761 1 0 29 -45 60 -101z
m-10900 -7729 c620 -306 870 -512 951 -785 28 -92 24 -245 -9 -366 -75 -278
-264 -596 -715 -1201 -85 -115 -159 -208 -163 -208 -13 0 -1279 951 -1279 961
0 4 191 374 424 821 233 447 435 837 450 866 25 49 29 53 54 47 15 -3 144 -64
287 -135z m5344 -2905 c403 -203 668 -399 770 -568 64 -108 84 -172 89 -288
14 -325 -168 -678 -746 -1451 l-156 -208 -30 24 c-17 12 -305 228 -641 480
-335 251 -610 460 -610 464 0 4 204 399 454 879 l453 871 125 -59 c69 -33 200
-97 292 -144z m2036 -210 c427 -210 604 -323 770 -489 161 -162 215 -277 215
-460 0 -309 -189 -670 -733 -1398 -103 -139 -174 -225 -181 -221 -12 7 -1256
941 -1268 952 -6 5 847 1661 896 1739 11 18 23 14 301 -123z m3270 -79 c440
-217 618 -329 780 -491 159 -159 205 -256 212 -445 4 -99 1 -128 -21 -212 -51
-200 -158 -411 -370 -728 -134 -202 -499 -700 -512 -700 -2 0 -292 216 -644
480 l-640 480 16 33 c15 28 863 1656 885 1700 6 9 13 17 17 17 4 0 129 -60
277 -134z m15054 -478 c-26 -74 -313 -745 -435 -1018 -51 -112 -94 -138 -294
-174 -466 -85 -909 -210 -1655 -464 -1246 -426 -1983 -674 -4250 -1432 -1386
-464 -2677 -897 -2870 -962 -1566 -535 -2728 -1004 -3770 -1521 -304 -151
-442 -213 -453 -203 -8 9 90 269 156 411 116 254 281 571 354 681 123 186 300
341 489 428 41 19 193 77 339 131 146 53 654 241 1130 417 1311 485 2100 771
2692 973 693 239 2723 918 4133 1385 4292 1419 4454 1472 4463 1449 2 -4 -11
-49 -29 -101z m-6500 -554 c-22 -64 -105 -264 -183 -443 -79 -179 -170 -388
-202 -465 -60 -140 -103 -204 -154 -231 -16 -8 -113 -31 -217 -50 -432 -81
-917 -218 -1593 -448 -1278 -437 -2099 -713 -4465 -1505 -2827 -946 -2871
-961 -3315 -1119 -1272 -452 -2340 -897 -3285 -1371 -175 -87 -315 -148 -315
-137 0 30 134 358 221 541 203 427 308 602 443 738 157 160 280 229 641 361
132 48 605 222 1050 387 1416 524 2098 772 2741 993 935 323 2958 999 5779
1930 1111 366 2175 718 2365 780 301 100 475 152 517 154 8 1 -2 -41 -28 -115z
m-9160 -9763 c8 -14 -1 -43 -38 -127 -27 -60 -64 -151 -82 -202 l-34 -94 -130
-65 c-337 -170 -585 -338 -585 -399 0 -87 188 -213 401 -268 168 -44 234 -51
457 -51 116 0 212 -3 212 -7 0 -14 -61 -171 -94 -243 l-34 -73 -121 -62 c-213
-108 -477 -296 -557 -397 -75 -93 -88 -147 -54 -218 52 -107 226 -204 420
-235 212 -33 525 7 742 95 113 46 108 13 -35 -200 -90 -134 -156 -219 -180
-231 -34 -18 -201 -52 -322 -65 -433 -46 -736 90 -843 379 -33 89 -41 271 -18
382 31 151 162 355 316 493 28 25 47 48 43 50 -5 2 -35 8 -68 12 -132 16 -280
79 -372 161 -37 32 -63 67 -90 122 -37 74 -38 79 -37 181 1 164 47 308 142
448 76 112 252 253 517 414 132 80 398 219 420 219 8 0 19 -8 24 -19z m2210 0
c8 -14 -1 -43 -38 -127 -27 -60 -64 -151 -82 -202 l-34 -94 -130 -65 c-337
-170 -585 -338 -585 -399 0 -87 188 -213 401 -268 168 -44 234 -51 457 -51
116 0 212 -3 212 -7 0 -14 -61 -171 -94 -243 l-34 -73 -121 -62 c-213 -108
-477 -296 -557 -397 -75 -93 -88 -147 -54 -218 52 -107 226 -204 420 -235 212
-33 525 7 742 95 113 46 108 13 -35 -200 -90 -134 -156 -219 -180 -231 -34
-18 -201 -52 -322 -65 -433 -46 -736 90 -843 379 -33 89 -41 271 -18 382 31
151 162 355 316 493 28 25 47 48 43 50 -5 2 -35 8 -68 12 -132 16 -280 79
-372 161 -37 32 -63 67 -90 122 -37 74 -38 79 -37 181 1 164 47 308 142 448
76 112 252 253 517 414 132 80 398 219 420 219 8 0 19 -8 24 -19z m14280 0 c8
-14 -1 -43 -38 -127 -27 -60 -64 -151 -82 -202 l-34 -94 -130 -65 c-337 -170
-585 -338 -585 -399 0 -87 188 -213 401 -268 168 -44 234 -51 457 -51 116 0
212 -3 212 -7 0 -14 -61 -171 -94 -243 l-34 -73 -121 -62 c-213 -108 -477
-296 -557 -397 -75 -93 -88 -147 -54 -218 52 -107 226 -204 420 -235 212 -33
525 7 742 95 113 46 108 13 -35 -200 -90 -134 -156 -219 -180 -231 -34 -18
-201 -52 -322 -65 -433 -46 -736 90 -843 379 -33 89 -41 271 -18 382 31 151
162 355 316 493 28 25 47 48 43 50 -5 2 -35 8 -68 12 -132 16 -280 79 -372
161 -37 32 -63 67 -90 122 -37 74 -38 79 -37 181 1 164 47 308 142 448 76 112
252 253 517 414 132 80 398 219 420 219 8 0 19 -8 24 -19z m-19231 -153 c55
-73 157 -198 226 -277 69 -79 126 -147 126 -150 0 -4 -31 -38 -70 -76 -38 -38
-70 -75 -70 -81 0 -7 13 -41 29 -77 121 -269 276 -786 340 -1132 58 -311 65
-494 26 -611 -32 -95 -93 -216 -162 -322 -52 -81 -54 -83 -76 -69 -15 10 -21
23 -20 43 19 260 13 394 -33 642 -84 459 -319 1128 -600 1710 -71 149 -82 177
-72 196 6 11 58 92 115 179 72 109 110 157 123 157 12 0 53 -46 118 -132z
m7116 68 c28 -114 76 -233 117 -289 116 -163 325 -132 400 59 19 49 23 78 23
172 l0 113 51 -7 c87 -12 92 -16 102 -81 14 -102 9 -331 -10 -403 -43 -163
-124 -278 -235 -332 -59 -29 -76 -33 -152 -33 -95 0 -151 17 -235 70 -27 17
-55 34 -62 38 -7 5 -20 -10 -35 -40 -90 -182 -330 -265 -560 -193 -34 10 -64
18 -66 16 -2 -3 24 -87 57 -188 102 -315 166 -605 191 -873 13 -141 13 -387
-1 -445 -16 -69 -65 -163 -150 -289 -112 -164 -102 -154 -133 -140 -31 14 -30
6 -5 99 14 50 22 120 26 210 19 466 -147 1107 -537 2075 l-80 199 46 81 c26
44 69 115 97 158 47 70 54 77 84 77 18 0 33 -5 33 -11 0 -20 71 -181 119 -268
91 -167 193 -245 381 -292 194 -49 331 9 377 159 14 45 18 92 18 218 l0 162
55 20 c30 12 58 21 61 21 4 1 14 -28 23 -63z m3334 -68 c55 -73 157 -198 226
-277 69 -79 126 -147 126 -150 0 -4 -31 -38 -70 -76 -38 -38 -70 -75 -70 -82
0 -7 16 -48 35 -92 198 -451 385 -1206 385 -1557 0 -75 -5 -111 -25 -170 -32
-95 -93 -216 -162 -322 -52 -81 -54 -83 -76 -69 -15 10 -21 23 -20 43 19 260
13 394 -33 642 -84 459 -319 1128 -600 1710 -71 149 -82 177 -72 196 6 11 58
92 115 179 72 109 110 157 123 157 12 0 53 -46 118 -132z m1826 70 c24 -71
116 -255 155 -311 113 -165 324 -257 593 -258 167 -1 265 36 369 140 97 97
166 255 185 422 4 39 11 59 20 59 24 0 109 -32 116 -44 11 -16 9 -217 -2 -306
-16 -129 -40 -211 -92 -319 -85 -177 -218 -287 -408 -338 -100 -27 -324 -25
-458 5 -57 13 -106 22 -108 20 -1 -2 8 -35 22 -73 40 -110 129 -419 157 -545
53 -236 70 -389 71 -625 1 -248 -2 -262 -79 -417 -48 -95 -166 -288 -176 -288
-4 0 -16 8 -27 18 -20 16 -20 20 -6 92 7 41 17 140 20 220 21 474 -136 1081
-530 2050 l-96 234 42 71 c22 38 66 109 97 157 50 79 59 88 86 88 28 0 32 -5
49 -52z m3840 0 c24 -71 116 -255 155 -311 113 -165 324 -257 593 -258 167 -1
265 36 369 140 97 97 166 255 185 422 4 39 11 59 20 59 24 0 109 -32 116 -44
11 -16 9 -217 -2 -306 -16 -129 -40 -211 -92 -319 -85 -177 -218 -287 -408
-338 -100 -27 -324 -25 -458 5 -57 13 -106 22 -108 20 -1 -2 8 -35 22 -73 40
-110 129 -419 157 -545 53 -236 70 -389 71 -625 1 -248 -2 -262 -79 -417 -48
-95 -166 -288 -176 -288 -4 0 -16 8 -27 18 -20 16 -20 20 -6 92 7 41 17 140
20 220 21 474 -136 1081 -530 2050 l-96 234 42 71 c22 38 66 109 97 157 50 79
59 88 86 88 28 0 32 -5 49 -52z m-6830 -1665 c-4 -16 -19 -73 -34 -128 l-26
-100 -532 -3 c-293 -1 -532 0 -532 2 0 5 49 215 56 239 5 16 39 17 540 17
l534 0 -6 -27z m6040 0 c-4 -16 -19 -73 -34 -128 l-26 -100 -532 -3 c-293 -1
-532 0 -532 2 0 5 49 215 56 239 5 16 39 17 540 17 l534 0 -6 -27z"/>
<path d="M35880 41009 c-395 -48 -698 -178 -933 -398 -378 -356 -669 -1108
-762 -1971 -9 -80 -19 -268 -22 -419 l-6 -275 30 25 c17 13 99 85 184 160
1104 971 2431 1840 3522 2303 98 42 183 76 188 76 78 0 -277 152 -631 270
-311 103 -612 175 -905 215 -140 20 -552 28 -665 14z"/>
<path d="M56850 60029 c-195 -105 -581 -310 -858 -456 -396 -210 -500 -269
-490 -279 78 -73 981 -864 987 -864 7 0 725 1780 719 1785 -2 2 -163 -82 -358
-186z"/>
<path d="M5142 36160 c-496 -180 -904 -329 -906 -331 -3 -2 185 -73 417 -158
232 -85 640 -234 906 -333 267 -98 488 -178 493 -178 9 0 9 959 -1 1182 l-6
146 -903 -328z"/>
<path d="M15380 15303 c-124 -59 -510 -240 -859 -403 -348 -162 -633 -299
-633 -304 0 -14 927 -915 934 -908 5 5 770 1650 795 1710 3 6 1 12 -3 11 -5 0
-110 -48 -234 -106z"/>
<path d="M49010 10530 c-228 -49 -506 -186 -618 -304 -73 -77 -77 -120 -20
-266 19 -47 622 -1289 646 -1330 7 -11 53 8 243 102 299 148 422 229 559 367
117 118 167 194 207 316 35 106 37 279 5 395 -87 323 -283 579 -518 680 -140
60 -338 76 -504 40z"/>
<path d="M50190 8773 c-148 -14 -336 -61 -509 -127 -114 -44 -541 -248 -541
-259 0 -16 662 -1363 708 -1440 61 -102 146 -195 213 -232 50 -28 62 -30 154
-30 115 0 186 21 364 106 145 69 260 148 369 254 158 152 248 310 288 505 60
299 -69 700 -308 956 -185 198 -455 295 -738 267z"/>
<path d="M44925 8895 c-108 -18 -238 -55 -359 -101 -103 -40 -147 -64 -194
-108 -70 -64 -77 -116 -38 -267 21 -82 432 -1398 439 -1405 3 -3 381 117 477
151 117 42 273 122 358 182 158 112 252 229 306 382 30 82 31 93 31 236 -1
162 -13 228 -75 398 -97 264 -293 450 -545 517 -106 28 -280 34 -400 15z"/>
<path d="M45655 6983 c-70 -9 -256 -45 -325 -64 -114 -30 -464 -140 -473 -148
-8 -8 420 -1383 473 -1520 42 -108 97 -196 157 -251 121 -111 276 -115 577
-16 407 134 671 383 757 715 85 325 -36 781 -275 1029 -174 182 -396 264 -708
261 -84 -1 -166 -4 -183 -6z"/>
</g>
</svg>
